<?xml version="1.0" encoding="utf-8"?>
<svg width="157" height="40" viewBox="0 0 157 40" fill="none" xmlns="http://www.w3.org/2000/svg">
<g clip-path="url(#clip0_609_3336)">
<path fill-rule="evenodd" clip-rule="evenodd" d="M47.3525 19.3131L28.3014 38.3907C26.1281 40.5669 22.5795 40.4937 20.4977 38.2296L3.40332 19.6396L6.05594 17.2004L23.1503 35.7906C23.8442 36.5453 25.0271 36.5694 25.7515 35.8442L44.8026 16.7667L47.3525 19.3131Z" fill="url(#paint0_linear_609_3336)"/>
<path fill-rule="evenodd" clip-rule="evenodd" d="M44.4494 6.00939C41.3834 2.93929 36.4141 2.93596 33.3442 5.99938L33.3342 6.00939L26.5017 12.8513C26.4783 12.8748 26.4544 12.8974 26.4301 12.9193L19.6696 19.6929C19.6665 19.696 19.6633 19.6992 19.6602 19.7023C15.1825 24.1763 7.92822 24.1733 3.45431 19.6932C-1.02123 15.2115 -1.02123 7.94471 3.45431 3.46302C7.9288 -1.01764 15.1844 -1.02006 19.662 3.45575L19.6692 3.46302L22.1517 5.94893C22.8549 6.65307 22.8541 7.7939 22.15 8.49707C21.4458 9.20024 20.305 9.19945 19.6018 8.4953L17.1258 6.01588L17.1193 6.00939C14.0501 2.93595 9.07341 2.93595 6.00419 6.00939C2.93361 9.0842 2.93361 14.072 6.00419 17.1468C9.07341 20.2203 14.0501 20.2203 17.1193 17.1468C17.122 17.1442 17.1246 17.1415 17.1273 17.1389L23.9477 10.3053C23.9714 10.2816 23.9955 10.2587 24.0201 10.2366L30.7733 3.47412L30.7843 3.46302C35.2612 -1.02006 42.5222 -1.02006 46.9993 3.46302C51.4746 7.94471 51.4746 15.2115 46.9993 19.6932C42.5222 24.1763 35.2612 24.1763 30.7843 19.6932L30.777 19.6859L28.3322 17.2378C27.6291 16.5336 27.6298 15.3928 28.334 14.6896C29.0381 13.9865 30.179 13.9872 30.8821 14.6914L33.3342 17.1469L33.3407 17.1533C36.4105 20.2203 41.3823 20.2181 44.4494 17.1468C47.52 14.072 47.52 9.0842 44.4494 6.00939Z" fill="url(#paint1_linear_609_3336)"/>
<path d="M65.4412 16.2162H63.5039V4.12537H72.0661V6.01077H65.4412V9.6951H71.7374V11.494H65.4412V16.2162Z" fill="white"/>
<path d="M77.6416 7.51562C78.9389 7.51562 79.994 7.94806 80.8243 8.79562C81.6545 9.64319 82.0697 10.6983 82.0697 11.961C82.0697 13.241 81.6545 14.3135 80.8416 15.1437C80.0286 15.974 78.9562 16.3891 77.6416 16.3891C76.327 16.3891 75.2545 15.974 74.4589 15.1437C73.6459 14.3135 73.248 13.241 73.248 11.961C73.248 10.681 73.6459 9.6259 74.4589 8.77833C75.2718 7.94806 76.327 7.51562 77.6416 7.51562ZM77.6416 9.15887C76.8459 9.15887 76.2232 9.43562 75.7389 9.97184C75.2545 10.5254 75.0297 11.1827 75.0297 11.961C75.0297 12.7567 75.2545 13.414 75.7389 13.9329C76.2059 14.4691 76.8459 14.7286 77.6416 14.7286C78.4372 14.7286 79.0599 14.4691 79.5443 13.9329C80.0286 13.414 80.2708 12.7567 80.2708 11.961C80.2708 11.1999 80.0113 10.5427 79.527 9.98914C79.0253 9.43562 78.4026 9.15887 77.6416 9.15887Z" fill="white"/>
<path d="M83.9531 7.68868H85.6137L85.7347 8.81301C86.2191 7.94814 87.0666 7.49841 88.2429 7.49841C89.1077 7.49841 89.7996 7.74057 90.3531 8.2249L89.5402 9.78166C89.1077 9.43571 88.6061 9.26274 88.0353 9.26274C87.378 9.26274 86.8245 9.47031 86.392 9.86814C85.9423 10.2833 85.7347 10.8541 85.7347 11.5979V16.2163H83.9531V7.68868Z" fill="white"/>
<path d="M99.5852 12.6183H92.6662C92.7354 13.2756 93.0295 13.7946 93.5311 14.1751C94.0327 14.5729 94.6727 14.7632 95.4511 14.7632C95.9008 14.7632 96.3679 14.694 96.8349 14.521C97.3019 14.3481 97.6652 14.1232 97.9246 13.8464L99.0835 14.9708C98.6511 15.4378 98.0976 15.801 97.4403 16.0432C96.783 16.3027 96.1084 16.4237 95.4165 16.4237C94.0154 16.4237 92.8911 16.0259 92.0608 15.1956C91.2306 14.3827 90.8154 13.2929 90.8154 11.9092C90.8154 10.6119 91.2306 9.53942 92.0608 8.70915C92.8911 7.87888 93.9635 7.46375 95.2954 7.46375C96.7138 7.46375 97.8381 7.91348 98.6338 8.77834C99.4295 9.6605 99.7408 10.9405 99.5852 12.6183ZM92.7008 11.1135H97.8727C97.8208 10.4562 97.5614 9.95456 97.1116 9.59131C96.6619 9.24537 96.0738 9.0551 95.3473 9.0551C94.6727 9.0551 94.1019 9.24537 93.6176 9.59131C93.1333 9.95456 92.8392 10.4562 92.7008 11.1135Z" fill="white"/>
<path d="M107.48 7.67139H109.435L105.819 16.2508H103.865L100.232 7.67139H102.204L103.346 10.4217L104.851 14.3827L106.2 10.7676L107.48 7.67139Z" fill="white"/>
<path d="M118.876 12.6183H111.957C112.026 13.2756 112.32 13.7946 112.822 14.1751C113.324 14.5729 113.964 14.7632 114.742 14.7632C115.192 14.7632 115.659 14.694 116.126 14.521C116.593 14.3481 116.956 14.1232 117.216 13.8464L118.375 14.9708C117.942 15.4378 117.389 15.801 116.731 16.0432C116.074 16.3027 115.399 16.4237 114.708 16.4237C113.306 16.4237 112.182 16.0259 111.352 15.1956C110.522 14.3827 110.106 13.2929 110.106 11.9092C110.106 10.6119 110.522 9.53942 111.352 8.70915C112.182 7.87888 113.255 7.46375 114.586 7.46375C116.005 7.46375 117.129 7.91348 117.925 8.77834C118.72 9.6605 119.032 10.9405 118.876 12.6183ZM111.992 11.1135H117.164C117.112 10.4562 116.852 9.95456 116.403 9.59131C115.953 9.24537 115.365 9.0551 114.638 9.0551C113.964 9.0551 113.393 9.24537 112.909 9.59131C112.424 9.95456 112.13 10.4562 111.992 11.1135Z" fill="white"/>
<path d="M120.692 7.68868H122.353L122.474 8.81301C122.958 7.94814 123.806 7.49841 124.982 7.49841C125.847 7.49841 126.539 7.74057 127.092 8.2249L126.279 9.78166C125.847 9.43571 125.345 9.26274 124.775 9.26274C124.117 9.26274 123.564 9.47031 123.131 9.86814C122.682 10.2833 122.474 10.8541 122.474 11.5979V16.2163H120.692V7.68868Z" fill="white"/>
<path d="M72.3607 30.6249L73.6926 31.9568C72.4818 33.1676 70.9597 33.7557 69.1434 33.7557C68.071 33.7557 67.137 33.5827 66.3067 33.2368C65.4764 32.8908 64.8018 32.4238 64.3002 31.8357C63.7813 31.2476 63.4007 30.5903 63.1413 29.8638C62.8818 29.1373 62.7607 28.3763 62.7607 27.546C62.7607 26.733 62.8818 25.9546 63.1586 25.2108C63.418 24.4671 63.7986 23.7925 64.3175 23.1871C64.8191 22.5817 65.4937 22.0973 66.324 21.7341C67.1543 21.3881 68.1056 21.1979 69.1434 21.1979C70.8732 21.1979 72.3434 21.8206 73.5716 23.0314L72.2743 24.2768C71.4267 23.4465 70.3888 23.0314 69.1434 23.0314C67.6905 23.0314 66.5834 23.4811 65.8224 24.3633C65.044 25.2627 64.6634 26.3179 64.6807 27.5287C64.6807 28.7568 65.0613 29.7946 65.8224 30.6595C66.5661 31.5244 67.6732 31.9395 69.1434 31.9395C69.7143 31.9395 70.2851 31.8357 70.8732 31.5935C71.444 31.3687 71.9456 31.04 72.3607 30.6249Z" fill="white"/>
<path d="M78.9931 24.813C80.2904 24.813 81.3456 25.2454 82.1758 26.093C83.0061 26.9406 83.4212 27.9957 83.4212 29.2584C83.4212 30.5384 83.0061 31.6108 82.1931 32.4411C81.3802 33.2714 80.3077 33.6865 78.9931 33.6865C77.6785 33.6865 76.6061 33.2714 75.8104 32.4411C74.9974 31.6108 74.5996 30.5384 74.5996 29.2584C74.5996 27.9784 74.9974 26.9233 75.8104 26.0757C76.6234 25.2454 77.6785 24.813 78.9931 24.813ZM78.9931 26.4562C78.1974 26.4562 77.5747 26.733 77.0904 27.2692C76.6061 27.8227 76.3812 28.48 76.3812 29.2584C76.3812 30.0541 76.6061 30.7114 77.0904 31.2303C77.5574 31.7665 78.1974 32.026 78.9931 32.026C79.7888 32.026 80.4115 31.7665 80.8958 31.2303C81.3801 30.7114 81.6223 30.0541 81.6223 29.2584C81.6223 28.4973 81.3629 27.84 80.8785 27.2865C80.3769 26.733 79.7542 26.4562 78.9931 26.4562Z" fill="white"/>
<path d="M92.9318 33.5136H91.1329V28.826C91.1329 28.1687 90.9426 27.6325 90.5967 27.1828C90.2334 26.733 89.7491 26.5082 89.1437 26.5082C88.521 26.5082 88.0367 26.733 87.6561 27.1828C87.2756 27.6325 87.0853 28.186 87.0853 28.826V33.5136H85.3037V24.9687H86.9643L87.0853 26.1103C87.3102 25.6779 87.6388 25.3492 88.0713 25.1417C88.5037 24.9341 88.9707 24.8303 89.4724 24.8303C90.8216 24.8303 91.7037 25.4011 92.1534 26.5428C92.7761 25.4184 93.7448 24.8476 95.0767 24.8476C96.2356 24.8476 97.1351 25.1936 97.7578 25.8855C98.3805 26.5773 98.6918 27.546 98.6918 28.7914V33.5136H96.8929V28.7914C96.8929 28.1341 96.7199 27.5806 96.4086 27.1655C96.0799 26.7503 95.6129 26.5255 95.0075 26.5255C94.3848 26.5255 93.8832 26.7503 93.5026 27.2001C93.1221 27.6498 92.9318 28.186 92.9318 28.826V33.5136Z" fill="white"/>
<path d="M105.615 31.9741C106.394 31.9741 107.034 31.7319 107.553 31.213C108.054 30.7114 108.314 30.0541 108.314 29.2584C108.314 28.4627 108.054 27.8054 107.57 27.3038C107.068 26.8022 106.411 26.5427 105.615 26.5427C104.802 26.5427 104.145 26.8022 103.661 27.3211C103.177 27.84 102.934 28.4973 102.934 29.2584C102.934 30.0368 103.177 30.6768 103.695 31.1957C104.197 31.7146 104.837 31.9741 105.615 31.9741ZM102.779 37.4746H100.997V24.986H102.675L102.779 26.3697C103.09 25.8854 103.505 25.5049 104.059 25.2281C104.612 24.9514 105.183 24.813 105.788 24.813C107.051 24.8303 108.089 25.2454 108.885 26.0757C109.68 26.906 110.095 27.9784 110.095 29.2584C110.095 30.573 109.698 31.6281 108.919 32.4584C108.124 33.2887 107.086 33.7038 105.788 33.7038C105.2 33.7038 104.612 33.6 104.059 33.3579C103.505 33.1157 103.073 32.7524 102.779 32.2681V37.4746Z" fill="white"/>
<path d="M118.791 26.3351L118.843 24.9859H120.573V33.5135H118.878L118.791 32.1297C118.515 32.6486 118.099 33.0465 117.546 33.3232C116.992 33.6 116.422 33.7384 115.851 33.7384C114.571 33.7557 113.516 33.3578 112.703 32.5621C111.872 31.7665 111.475 30.6594 111.475 29.2411C111.475 27.8573 111.89 26.7848 112.72 25.9892C113.55 25.1935 114.605 24.7957 115.885 24.7957C116.491 24.7957 117.062 24.934 117.598 25.2108C118.117 25.4875 118.515 25.8681 118.791 26.3351ZM116.024 26.4216C115.228 26.4216 114.571 26.6811 114.052 27.2C113.516 27.7189 113.256 28.3935 113.256 29.2411C113.256 30.1059 113.516 30.7805 114.052 31.2994C114.571 31.8184 115.228 32.0778 116.024 32.0778C116.525 32.0778 116.975 31.974 117.373 31.7665C117.771 31.5589 118.065 31.2994 118.272 30.9535C118.48 30.6248 118.618 30.2616 118.722 29.8638C118.826 29.4659 118.826 29.0681 118.722 28.653C118.618 28.2551 118.48 27.8919 118.272 27.5459C118.065 27.2173 117.771 26.9405 117.373 26.733C116.975 26.5254 116.525 26.4216 116.024 26.4216Z" fill="white"/>
<path d="M131.258 33.5135H129.459V28.947C129.459 28.2032 129.252 27.6151 128.854 27.1654C128.439 26.7156 127.885 26.4908 127.159 26.4908C126.467 26.4908 125.896 26.7502 125.446 27.2346C124.997 27.7362 124.772 28.3416 124.772 29.0508V33.5135H122.99V24.9686H124.616L124.72 26.214C125.516 25.3146 126.484 24.8475 127.591 24.8475C128.664 24.8475 129.529 25.2108 130.221 25.9373C130.912 26.6637 131.258 27.667 131.258 28.9297V33.5135Z" fill="white"/>
<path d="M135.329 24.9514V33.5136H133.547V24.9514H135.329ZM133.34 22.4779C133.34 22.9449 133.513 23.2736 133.893 23.4638C134.257 23.6541 134.62 23.6541 135 23.4638C135.364 23.2736 135.554 22.9449 135.554 22.4779C135.554 22.0282 135.364 21.6995 135 21.5092C134.62 21.3363 134.257 21.3363 133.893 21.5092C133.513 21.6995 133.34 22.0282 133.34 22.4779Z" fill="white"/>
<path d="M141.611 24.813C142.909 24.813 143.964 25.2454 144.794 26.093C145.624 26.9406 146.039 27.9957 146.039 29.2584C146.039 30.5384 145.624 31.6108 144.811 32.4411C143.998 33.2714 142.926 33.6865 141.611 33.6865C140.297 33.6865 139.224 33.2714 138.429 32.4411C137.616 31.6108 137.218 30.5384 137.218 29.2584C137.218 27.9784 137.616 26.9233 138.429 26.0757C139.242 25.2454 140.297 24.813 141.611 24.813ZM141.611 26.4562C140.816 26.4562 140.193 26.733 139.709 27.2692C139.224 27.8227 138.999 28.48 138.999 29.2584C138.999 30.0541 139.224 30.7114 139.709 31.2303C140.176 31.7665 140.816 32.026 141.611 32.026C142.407 32.026 143.03 31.7665 143.514 31.2303C143.998 30.7114 144.24 30.0541 144.24 29.2584C144.24 28.4973 143.981 27.84 143.497 27.2865C142.995 26.733 142.372 26.4562 141.611 26.4562Z" fill="white"/>
<path d="M156.191 33.5135H154.392V28.947C154.392 28.2032 154.184 27.6151 153.787 27.1654C153.372 26.7156 152.818 26.4908 152.092 26.4908C151.4 26.4908 150.829 26.7502 150.379 27.2346C149.929 27.7362 149.704 28.3416 149.704 29.0508V33.5135H147.923V24.9686H149.549L149.653 26.214C150.448 25.3146 151.417 24.8475 152.524 24.8475C153.596 24.8475 154.461 25.2108 155.153 25.9373C155.845 26.6637 156.191 27.667 156.191 28.9297V33.5135Z" fill="white"/>
</g>
<defs>
<linearGradient id="paint0_linear_609_3336" x1="25.378" y1="16.7667" x2="25.378" y2="39.9763" gradientUnits="userSpaceOnUse">
<stop stop-color="#9A1E84"/>
<stop offset="1" stop-color="#6734FA"/>
</linearGradient>
<linearGradient id="paint1_linear_609_3336" x1="25.2267" y1="0.100709" x2="25.2267" y2="23.0555" gradientUnits="userSpaceOnUse">
<stop stop-color="#6734FA"/>
<stop offset="1" stop-color="#FF3ABC"/>
</linearGradient>
<clipPath id="clip0_609_3336">
<rect width="156.396" height="40" fill="white"/>
</clipPath>
</defs>
</svg>
